OpenSim_Sub06_CSStiffKnee_GRF.mot
version=1
nRows=63
nColumns=19
inDegrees=no
endheader
time	lFx	lFy	lFz	lCOPx	lCOPy	lCOPz	rFx	rFy	rFz	rCOPx	rCOPy	rCOPz	lMx	lMy	lMz	rMx	rMy	rMz
17.91000000	27.97075090	635.69004176	85.68600705	0.79949604	0	-0.68698019	-0.01865302	1.03061323	0.15839167	-0.00002630	0	0.00000795	0	-12.93857516	0	0	0.00000867	0.00000000
17.92000000	30.44623095	636.96276021	85.62776863	0.79342250	0	-0.68687222	-0.01851711	1.05495446	0.19877209	-0.00005266	0	0.00001577	0	-13.06311132	0	0	0.00001470	-0.00000000
17.93000000	33.02761910	636.88881683	85.54215886	0.78726892	0	-0.68678784	0.01402590	0.98153135	0.19747426	-0.00006152	0	0.00001818	0	-13.17012135	0	0	0.00001192	0.00000000
17.94000000	35.74412026	635.39597187	85.49978901	0.78094973	0	-0.68672248	0.05285278	0.85565259	0.19230535	0.00001138	0	-0.00000413	0	-13.23852381	0	0	-0.00001924	0.00000000
17.95000000	38.40259073	632.42498694	85.53171471	0.77468380	0	-0.68668702	0.07534951	0.75715860	0.18564749	0.00026803	0	-0.00008156	0	-13.31735707	0	0	-0.00010399	-0.00000000
17.96000000	40.87955452	628.01353028	85.57681815	0.76856307	0	-0.68668888	0.08343337	0.82353259	0.12914345	0.00077669	0	-0.00023381	0	-13.41592319	0	0	-0.00024508	-0.00000000
17.97000000	43.28630973	622.22126681	85.64774361	0.76247764	0	-0.68671584	0.09075532	1.10024070	0.06324737	0.00135945	0	-0.00040594	0	-13.55139916	0	0	-0.00035531	0.00000000
17.98000000	45.82492831	615.28865340	85.81872812	0.75620819	0	-0.68673570	0.11973437	1.41794644	0.03122845	0.00121326	0	-0.00035511	0	-13.73140871	0	0	-0.00015753	0.00000000
17.99000000	48.58157642	607.73879493	86.05580910	0.74973857	0	-0.68675988	0.27090282	1.33434996	-0.00173587	-0.00144365	0	0.00045302	0	-13.92878824	0	0	0.00086541	0.00000000
18.00000000	51.41086289	600.23153130	86.31248901	0.74312014	0	-0.68680976	0.64811978	0.14283023	0.00158396	-0.00901647	0	0.00273228	0	-14.11341880	0	0	0.00324452	0.00000000
18.01000000	54.22761847	592.86431409	86.54296082	0.73638493	0	-0.68684689	1.20643452	-3.10339959	0.17619119	-0.02210601	0	0.00663986	0	-14.28135414	0	0	0.00664301	-0.00000000
18.02000000	57.17644565	585.31704440	86.56735661	0.72975098	0	-0.68686168	1.46143960	-8.52287908	0.70439675	-0.03342987	0	0.00994993	0	-14.40344215	0	0	0.00801720	0.00000000
18.03000000	60.31784173	577.27688525	86.32355046	0.72339882	0	-0.68683605	-0.02086823	-12.48921032	1.80257458	-0.01843402	0	0.00525794	0	-14.50338516	0	0	-0.00066598	0.00000000
18.04000000	63.51835542	568.40887880	85.79955533	0.71746168	0	-0.68676817	-5.66294942	-3.89365934	3.33119719	0.07037494	0	-0.02164566	0	-14.56182800	0	0	-0.03243740	0.00000000
18.05000000	66.59119011	557.84024821	84.91721425	0.71179929	0	-0.68661718	-17.70684960	38.01400216	3.75791262	0.28516690	0	-0.08614857	0	-14.53296003	0	0	-0.09669625	0.00000000
18.06000000	69.51195493	543.46521153	83.31914625	0.70619081	0	-0.68632198	-37.91289538	139.86447950	-0.27161475	0.60592926	0	-0.18164082	0	-14.39533913	0	0	-0.17411682	-0.00000000
18.07000000	72.19649892	522.11180643	80.32569274	0.70072360	0	-0.68577215	-65.65147916	309.52124190	-11.29726075	0.87046706	0	-0.26035808	0	-14.08048684	0	0	-0.13422100	0.00000000
18.08000000	74.17198654	490.59713482	75.10623024	0.69567618	0	-0.68480607	-93.76428819	509.56272191	-31.31705801	0.99942692	0	-0.29909178	0	-13.48516831	0	0	0.33530590	-0.00000000
18.09000000	74.51321436	448.08473264	67.10140731	0.69140734	0	-0.68338080	-112.29220299	675.99632257	-55.23775022	1.03404556	0	-0.30913147	0	-12.52723200	0	0	0.55203927	-0.00000000
18.10000000	72.19873505	397.35862419	56.64030849	0.68833574	0	-0.68177176	-119.23376982	763.97099235	-73.68068346	1.02790614	0	-0.30609116	0	-11.20324502	0	0	0.51248016	-0.00000000
18.11000000	67.00859466	342.77339444	44.88045469	0.68733194	0	-0.68097787	-116.46871580	771.88237585	-87.23404663	1.01335553	0	-0.29973831	0	-9.57882255	0	0	0.35210993	0.00000000
18.12000000	59.72333449	288.00444531	33.25152568	0.69047506	0	-0.68253411	-108.53467112	729.29719285	-98.37776712	1.00297644	0	-0.29395036	0	-7.79658453	0	0	0.03332290	0.00000000
18.13000000	51.20611388	235.50848968	23.18926886	0.69917786	0	-0.68705173	-98.88579720	671.87728569	-107.55401006	0.99818383	0	-0.28943575	0	-6.27469634	0	0	-0.37968916	0
18.14000000	41.99977670	186.60890633	15.17980750	0.71058373	0	-0.69089966	-89.40484341	624.00805406	-115.58452626	0.99702929	0	-0.28601518	0	-5.16147338	0	0	-0.86120917	0
18.15000000	32.69187714	141.65407073	9.08596574	0.71172582	0	-0.68114733	-81.29851203	595.34862506	-121.80413767	0.99729075	0	-0.28344311	0	-4.41978583	0	0	-1.40707857	0
18.16000000	23.86639699	100.76806810	4.61897924	0.67370699	0	-0.63131155	-74.78359083	585.29922175	-125.06791210	0.99718055	0	-0.28160745	0	-3.82584795	0	0	-1.89707109	-0.00000000
18.17000000	15.86969736	65.00523661	1.42443258	0.55708247	0	-0.50926930	-69.61879569	589.28184013	-125.26481038	0.99567223	0	-0.28043677	0	-3.05298716	0	0	-2.13903839	0
18.18000000	9.03243972	36.30081833	-0.84790762	0.35289280	0	-0.31419110	-64.93140736	601.81749686	-122.93311216	0.99267136	0	-0.27983721	0	-1.95478453	0	0	-2.14161320	0
18.19000000	4.08633441	15.94317487	-2.36641165	0.14580210	0	-0.12580617	-60.28078948	618.06273950	-118.95751642	0.98833925	0	-0.27962771	0	-0.81522041	0	0	-1.91356508	-0.00000000
18.20000000	2.02749749	3.24739636	-2.98583985	0.02455245	0	-0.01862826	-55.78441326	634.68594273	-114.23502651	0.98316565	0	-0.27962715	0	-0.14211381	0	0	-1.49561013	0
18.21000000	2.42660744	-3.35541278	-2.87104889	-0.01864497	0	0.01815059	-51.65364092	649.51418945	-109.43947399	0.97758818	0	-0.27964423	0	0.10034960	0	0	-1.04669686	0
18.22000000	3.34525631	-5.55650447	-2.65597110	-0.02151567	0	0.01955452	-47.76503815	660.69718009	-105.39791142	0.97196287	0	-0.27953545	0	0.11842921	0	0	-0.66822168	0
18.23000000	3.93029474	-5.57532946	-2.59870070	-0.01243934	0	0.01098769	-43.84406494	667.10605810	-102.72905624	0.96658204	0	-0.27922979	0	0.06907102	0	0	-0.42308762	0
18.24000000	4.12603989	-4.96411872	-2.52216225	-0.00436052	0	0.00370669	-39.83689286	668.95590282	-101.49581181	0.96146850	0	-0.27873098	0	0.02448641	0	0	-0.37035250	0
18.25000000	4.10595226	-4.44411924	-2.51129733	-0.00023706	0	0.00009245	-35.68399063	667.45151274	-101.37404134	0.95656427	0	-0.27814808	0	0.00153738	0	0	-0.48418877	0
18.26000000	3.99087628	-4.19438837	-2.49297879	0.00095873	0	-0.00090296	-31.52862206	663.76446369	-101.87927709	0.95175656	0	-0.27758528	0	-0.00521741	0	0	-0.68572183	0
18.27000000	3.87114556	-4.17912138	-2.48712850	0.00083592	0	-0.00075279	-27.51892155	658.63707039	-102.43348305	0.94681072	0	-0.27705298	0	-0.00461426	0	0	-0.92643803	-0.00000000
18.28000000	3.77770525	-4.20572992	-2.47061820	0.00042149	0	-0.00036914	-23.80357748	652.63246993	-102.69701696	0.94177887	0	-0.27656421	0	-0.00234633	0	0	-1.14661535	0
18.29000000	3.69983503	-4.17782098	-2.41893002	0.00011956	0	-0.00009925	-20.47397895	646.15033768	-102.51774442	0.93672486	0	-0.27612607	0	-0.00067588	0	0	-1.32280051	0.00000000
18.30000000	3.63946630	-4.10068833	-2.36264004	-0.00001473	0	0.00001730	-17.51928968	639.30586984	-101.74729433	0.93154324	0	-0.27570378	0	0.00007358	0	0	-1.45273348	-0.00000000
18.31000000	3.60176056	-4.07344452	-2.31789102	-0.00004345	0	0.00004015	-14.93470554	632.37864217	-100.46658586	0.92611968	0	-0.27533354	0	0.00023769	0	0	-1.48280980	0
18.32000000	3.58295749	-4.17533934	-2.34079103	-0.00003124	0	0.00002787	-12.53133108	625.63071625	-98.70217953	0.92050506	0	-0.27504824	0	0.00017250	0	0	-1.42661115	0.00000000
18.33000000	3.55059525	-4.29432323	-2.38898183	-0.00001378	0	0.00001192	-10.18683388	619.23472505	-96.63114965	0.91486143	0	-0.27484441	0	0.00007664	0	0	-1.34895732	0
18.34000000	3.49437095	-4.28176369	-2.40288801	-0.00000274	0	0.00000219	-7.92221959	613.27116252	-94.59071077	0.90926120	0	-0.27471886	0	0.00001622	0	0	-1.24152840	0
18.35000000	3.42616090	-4.16776243	-2.36778989	0.00000197	0	-0.00000170	-5.77786955	607.69914197	-92.84594198	0.90366357	0	-0.27463233	0	-0.00000812	0	0	-1.11227038	0
18.36000000	3.35178791	-4.09042354	-2.32921494	0.00000350	0	-0.00000267	-3.63523530	602.27176009	-91.56796386	0.89775536	0	-0.27456031	0	-0.00001343	0	0	-1.01800960	0
18.37000000	3.26562707	-4.07716742	-2.35088827	0.00000383	0	-0.00000266	-1.31192042	597.03290155	-90.99044512	0.89160977	0	-0.27448269	0	-0.00001288	0	0	-0.95303882	0
18.38000000	3.16792195	-4.11123417	-2.39175746	0.00000236	0	-0.00000165	1.22201820	592.45755634	-91.13274246	0.88544989	0	-0.27435520	0	-0.00000981	0	0	-0.97075043	0
18.39000000	3.07470523	-4.14733384	-2.45908020	-0.00000433	0	0.00000237	3.89036851	589.08138867	-91.85682639	0.87939349	0	-0.27417571	0	0.00000233	0	0	-1.07053215	0.00000000
18.40000000	2.99103533	-4.19847987	-2.53583209	-0.00002081	0	0.00001230	6.54636289	587.33960019	-93.01632206	0.87340995	0	-0.27398007	0	0.00003662	0	0	-1.15195908	0
18.41000000	2.95501774	-4.23626702	-2.55649066	-0.00004690	0	0.00002837	9.21313771	587.21389166	-94.37920765	0.86724531	0	-0.27381577	0	0.00010131	0	0	-1.19397045	0
18.42000000	2.99950311	-4.21508720	-2.55678239	-0.00006464	0	0.00004022	11.95405010	588.55051397	-95.75913763	0.86078350	0	-0.27369933	0	0.00017158	0	0	-1.17931703	0
18.43000000	3.07975498	-4.14070714	-2.52840757	-0.00002006	0	0.00001562	14.75440652	591.36031062	-97.06973979	0.85402088	0	-0.27363219	0	0.00014161	0	0	-1.07960668	0
18.44000000	3.13833585	-4.00573542	-2.47724887	0.00018363	0	-0.00010464	17.63379571	595.59326577	-98.27236966	0.84714107	0	-0.27359475	0	-0.00021686	0	0	-0.92118121	-0.00000000
18.45000000	3.15758093	-3.80929700	-2.47036819	0.00063771	0	-0.00037926	20.67713698	600.81418975	-99.36020833	0.84015243	0	-0.27356417	0	-0.00120006	0	0	-0.69769096	0.00000000
18.46000000	3.14287442	-3.58920067	-2.44935641	0.00125439	0	-0.00076333	23.97922054	606.23703879	-100.34765226	0.83309321	0	-0.27355858	0	-0.00284848	0	0	-0.44773031	0.00000000
18.47000000	3.13934004	-3.42312413	-2.41319756	0.00141886	0	-0.00089682	27.49950156	611.02187957	-101.19249278	0.82606994	0	-0.27360503	0	-0.00416266	0	0	-0.23451257	0
18.48000000	3.20586091	-3.50274725	-2.41364907	-0.00041637	0	0.00015120	31.16423775	614.71254576	-101.82891083	0.81926360	0	-0.27372089	0	-0.00193195	0	0	-0.05586224	0
18.49000000	3.39377583	-4.33077633	-2.50180528	-0.00665376	0	0.00386313	34.94105412	617.39533605	-102.26404439	0.81270372	0	-0.27386944	0	0.00987473	0	0	0.07291574	0
18.50000000	3.69769850	-6.62130122	-2.76158964	-0.01877414	0	0.01124345	38.96619008	619.32663079	-102.71724237	0.80612764	0	-0.27396289	0	0.03753117	0	0	0.15826537	0
18.51000000	3.89422814	-10.55860054	-3.23699108	-0.03219723	0	0.01974362	43.31277197	620.72044482	-103.50232958	0.79954388	0	-0.27392146	0	0.07735888	0	0	0.23046919	-0.00000000
18.52000000	3.35445725	-13.87543890	-3.74419837	-0.02729762	0	0.01775920	47.84512863	621.36213303	-104.77711721	0.79292898	0	-0.27375654	0	0.09431646	0	0	0.27179115	0
18.53000000	1.02146539	-8.98358658	-3.64473400	0.03858841	0	-0.02054249	52.42713375	620.87850274	-106.54838065	0.78635783	0	-0.27354908	0	-0.00483455	0	0	0.28190170	0
